<svg width="38" height="38" viewBox="0 0 38 38" fill="none" xmlns="http://www.w3.org/2000/svg">
<path d="M19.0007 35.6667C21.1898 35.6694 23.3578 35.2395 25.3803 34.4018C27.4027 33.564 29.2397 32.3349 30.7857 30.7851C32.3355 29.2391 33.5646 27.4021 34.4024 25.3796C35.2402 23.3572 35.67 21.1891 35.6673 19.0001C35.67 16.811 35.2402 14.6429 34.4024 12.6205C33.5646 10.598 32.3355 8.76103 30.7857 7.21505C29.2397 5.66519 27.4027 4.43607 25.3803 3.59832C23.3578 2.76056 21.1898 2.33069 19.0007 2.33339C16.8116 2.33069 14.6435 2.76056 12.6211 3.59832C10.5986 4.43607 8.76164 5.66519 7.21566 7.21505C5.6658 8.76103 4.43668 10.598 3.59893 12.6205C2.76117 14.6429 2.3313 16.811 2.334 19.0001C2.3313 21.1891 2.76117 23.3572 3.59893 25.3796C4.43668 27.4021 5.6658 29.2391 7.21566 30.7851C8.76164 32.3349 10.5986 33.564 12.6211 34.4018C14.6435 35.2395 16.8116 35.6694 19.0007 35.6667Z" stroke="#555555" stroke-width="4" stroke-linejoin="round"/>
<path d="M12.334 19L17.334 24L27.334 14" stroke="#555555" stroke-width="4" stroke-linecap="round" stroke-linejoin="round"/>
</svg>
