<svg width="246" height="57" viewBox="0 0 246 57" fill="none">
        <path
          d="M128.773 10H241C243.761 10 246 12.2386 246 15V52C246 54.7614 243.761 57 241 57H5C2.23858 57 5.63741e-08 54.7614 0 52V15C0 12.2386 2.23858 10 5 10H117.227L123 0L128.773 10Z"
          fill="#BEF1E4"
        />
        <path
          d="M128.773 10H241C243.761 10 246 12.2386 246 15V52C246 54.7614 243.761 57 241 57H5C2.23858 57 5.63741e-08 54.7614 0 52V15C0 12.2386 2.23858 10 5 10H117.227L123 0L128.773 10Z"
          stroke="#27CFA5"
        />
      </svg>