<svg width="128" height="128" viewBox="0 0 128 128" fill="none" xmlns="http://www.w3.org/2000/svg">
<rect x="0.341797" width="127.658" height="127.373" rx="8.98998" fill="#F2F2F2"/>
<path d="M74.5967 66.4629L72.4424 78.9707H59.9414L57.917 66.4023L74.5967 66.4629ZM63.7246 75.2041H68.7354L69.5986 70.3623L62.9131 70.3398L63.7246 75.2041ZM47.498 62.1299H41.2295V66.4023H50.6064L49.5645 70.5527H27.6865L28.7285 66.4023H37.0625V62.1299H28.7324L26.667 48.6836H47.498V62.1299ZM97.5098 70.5527H75.6318L76.6748 66.4023H98.5527L97.5098 70.5527ZM101.677 50.7686L100.637 54.9375H96.7363L94.752 61.9336H99.6133L98.5732 65.375H77.7646L78.8057 61.9336H81.0459L82.9316 54.9375H78.7422L78.7588 48.6836L101.677 50.7686ZM67.4043 50.7686L64.1738 65.3623H58.9639L60.0059 62.2344H53.7549V58.0654H61.0479L62.0898 54.9375H48.5469V48.6836L67.4043 50.7686ZM71.541 57.0088H72.6191L73.5439 52.8525H77.7168L74.9336 65.3623H70.7607L71.6914 61.1777H70.6143L69.6846 65.3623H65.5098L68.293 52.8525H72.4658L71.541 57.0088ZM85.6357 61.9336H90.1641L92.0498 54.9375H87.6191L85.6357 61.9336ZM32.6777 58.0654H43.334V52.8545H31.875L32.6777 58.0654Z" fill="#C4C4C4"/>
</svg>
