<svg
  viewBox="0 0 418 28"
  fill="none"
  xmlns="http://www.w3.org/2000/svg"
  preserveAspectRatio="none"
>
  {/* 배경 게이지 */}
  <path
    d="M0 13.9224C0 6.23329 6.23329 0 13.9224 0H403.751C411.44 0 417.673 6.23329 417.673 13.9224V13.9224C417.673 21.6116 411.44 27.8449 403.751 27.8449H13.9224C6.23328 27.8449 0 21.6116 0 13.9224V13.9224Z"
    fill="#F2F2F2"
  />
  
  {/* 채워진 목표 게이지 */}
  <path
    d="M0 13.9224C0 6.23329 6.23328 0 13.9224 0H194.571C202.26 0 208.494 6.23329 208.494 13.9224V13.9224C208.494 21.6116 202.26 27.8449 194.571 27.8449H13.9224C6.23328 27.8449 0 21.6116 0 13.9224V13.9224Z"
    fill="#27CFA5"
  />
</svg>
