<svg width="100%" height="100%" viewBox="0 0 33 33" fill="none" xmlns="http://www.w3.org/2000/svg">
<circle cx="16.667" cy="16.6665" r="16" transform="rotate(-180 16.667 16.6665)" fill="white"/>
<path d="M22 17.4665C22.4418 17.4665 22.8 17.1083 22.8 16.6665C22.8 16.2247 22.4418 15.8665 22 15.8665L22 17.4665ZM10.7676 16.1008C10.4552 16.4132 10.4552 16.9198 10.7676 17.2322L15.8588 22.3234C16.1712 22.6358 16.6778 22.6358 16.9902 22.3234C17.3026 22.0109 17.3026 21.5044 16.9902 21.192L12.4647 16.6665L16.9902 12.141C17.3026 11.8286 17.3026 11.3221 16.9902 11.0096C16.6778 10.6972 16.1712 10.6972 15.8588 11.0096L10.7676 16.1008ZM22 16.6665L22 15.8665L11.3333 15.8665L11.3333 16.6665L11.3333 17.4665L22 17.4665L22 16.6665Z" fill="#27CFA5"/>
</svg>
