<svg width="100%" height="100%" viewBox="0 0 30 30" fill="none" xmlns="http://www.w3.org/2000/svg">
<g clip-path="url(#clip0_3288_2908)">
<path d="M21.5445 14.8987C20.9445 14.8987 20.4602 14.4144 20.4602 13.8144V9.22404C20.4602 5.33491 17.9301 2.16866 14.8144 2.16866C11.6988 2.16866 9.16866 5.33491 9.16866 9.22404V13.8144C9.16866 14.4144 8.68433 14.8987 8.08433 14.8987C7.48433 14.8987 7 14.4144 7 13.8144V9.22404C7 4.14214 10.506 0 14.8144 0C19.1228 0 22.6288 4.14214 22.6288 9.22404V13.8144C22.6288 14.4144 22.1445 14.8987 21.5445 14.8987Z" fill="#27CFA5"/>
<path d="M23.0746 10.4824H6.82407C4.7121 10.4824 3 12.1945 3 14.3065V26.1763C3 28.2883 4.7121 30.0004 6.82407 30.0004H23.0746C25.1865 30.0004 26.8986 28.2883 26.8986 26.1763V14.3065C26.8986 12.1945 25.1865 10.4824 23.0746 10.4824Z" fill="#27CFA5"/>
<path d="M14.9496 26.0227C14.3496 26.0227 13.8652 25.5384 13.8652 24.9384V23.2757C13.8652 22.6757 14.3496 22.1914 14.9496 22.1914C15.5496 22.1914 16.0339 22.6757 16.0339 23.2757V24.9384C16.0339 25.5384 15.5496 26.0227 14.9496 26.0227Z" fill="white"/>
<path d="M14.9491 23.2328C17.2727 23.2328 19.1563 21.3491 19.1563 19.0256C19.1563 16.702 17.2727 14.8184 14.9491 14.8184C12.6256 14.8184 10.7419 16.702 10.7419 19.0256C10.7419 21.3491 12.6256 23.2328 14.9491 23.2328Z" fill="white"/>
</g>
<defs>
<clipPath id="clip0_3288_2908">
<rect width="30" height="30" fill="white"/>
</clipPath>
</defs>
</svg>
