<svg width="100%"
  height="100%" viewBox="0 0 250 101" fill="none" xmlns="http://www.w3.org/2000/svg">
<path d="M159.743 59.2656L152.562 100.952H110.896L104.15 59.0645L159.743 59.2656ZM123.506 88.3975H140.207L143.084 72.2617L120.803 72.1855L123.506 88.3975ZM48.5293 59.0645H79.7812L76.3086 72.8955H3.39062L6.86328 59.0645H34.6426V44.8164H48.5293V59.0645ZM236.114 72.8955H163.196L166.669 59.0645H239.588L236.114 72.8955ZM250 6.9502L246.534 20.8438H233.532L226.916 44.1641H243.12L239.651 55.6348H170.299L173.768 44.1641H181.236L187.521 20.8438H173.561L173.615 0L250 6.9502ZM135.771 6.9502L125.004 55.5879H107.638L111.11 45.1621H90.2783V31.2686H114.584L118.058 20.8438H72.918V0L135.771 6.9502ZM149.555 27.7529H153.152L156.235 13.8926H170.143L167.051 27.793L160.866 55.5869H146.96L150.062 41.6465H146.467L143.368 55.5869H129.454L138.73 13.8926H152.638L149.555 27.7529ZM69.4316 44.8145H6.88477L0 0H69.4316V44.8145ZM196.533 44.1641H211.626L217.911 20.8438H203.144L196.533 44.1641ZM20.0361 31.2686H55.5518V13.9004H17.3594L20.0361 31.2686Z" fill="url(#paint0_linear_1223_2008)"/>
<defs>
<linearGradient id="paint0_linear_1223_2008" x1="125" y1="0" x2="219.583" y2="129.167" gradientUnits="userSpaceOnUse">
<stop stop-color="#27CFA5"/>
<stop offset="1" stop-color="#0096FF"/>
</linearGradient>
</defs>
</svg>
