<svg width="100%" height="100%" viewBox="0 0 150 61" fill="none" xmlns="http://www.w3.org/2000/svg">
<path d="M95.8457 35.54L91.5361 60.5391H66.5371L62.4902 35.4189L95.8457 35.54ZM74.1035 53.0098H84.124L85.8506 42.9893L72.4814 42.9443L74.1035 53.0098ZM143.714 43.7998H97.7998L99.9004 35.4004H145.8L143.714 43.7998ZM41.6582 27.1963H29.1172V35.4189H47.8691L45.7852 43.7139H2.03418L4.11816 35.4189H20.7852V27.1963H4.13086L0 0.000976562H41.6582V27.1963ZM81.4619 4.16797L75.002 33.335H64.582L66.666 27.083H54.167V18.752H68.75L70.834 12.5H43.751V0L81.4619 4.16797ZM89.7334 16.6426H91.8916L93.7412 8.33203H102.085L100.23 16.668L96.5195 33.335H88.1758L90.0371 24.9746H87.8799L86.0205 33.335H77.6729L83.2383 8.33203H91.582L89.7334 16.6426ZM150 4.16797L147.92 12.5H138.996L135.421 25.0654H145.836L143.752 33.335H102.085L104.169 25.0654H110.417L113.813 12.5H104.136L104.169 0L150 4.16797ZM118.753 25.0654H127.089L130.485 12.5H122.324L118.753 25.0654ZM12.0215 18.752H33.3311V8.33594H10.416L12.0215 18.752Z" fill="white"/>
</svg>
