<svg width="86" height="85" viewBox="0 0 86 85" fill="none" xmlns="http://www.w3.org/2000/svg">
<rect x="0.341797" width="85" height="85" rx="8.98998" fill="#F2F2F2"/>
<path d="M49.79 44.3525L48.3535 52.6904H40.0215L38.6719 44.3115L49.79 44.3525ZM42.543 50.1787H45.8828L46.458 46.9512L42.002 46.9365L42.543 50.1787ZM31.7275 41.4639H27.5488V44.3115H33.7988L33.1045 47.0781H18.5215L19.2158 44.3115H24.7715V41.4639H19.2188L17.8418 32.5H31.7275V41.4639ZM65.0635 47.0781H50.4805L51.1748 44.3115H65.7578L65.0635 47.0781ZM67.8408 33.8906L67.1475 36.6689H64.5479L63.2236 41.333H66.4648L65.7715 43.627H51.9014L52.5957 41.333H54.0889L55.3457 36.6689H52.5527L52.5645 32.5L67.8408 33.8906ZM44.9961 33.8906L42.8428 43.6182H39.3691L40.0645 41.5332H35.8975V38.7539H40.7588L41.4531 36.6689H32.4258V32.5L44.9961 33.8906ZM47.7529 38.0498H48.4717L49.0879 35.2793H51.8691L51.251 38.0596L50.0146 43.6182H47.2334L47.8535 40.8291H47.1357L46.5156 43.6182H43.7334L45.5879 35.2793H48.3691L47.7529 38.0498ZM57.1475 41.333H60.167L61.4238 36.6689H58.4697L57.1475 41.333ZM21.8486 38.7549H28.9512V35.2803H21.3135L21.8486 38.7549Z" fill="#C4C4C4"/>
</svg>
