<svg width="257" height="104" viewBox="0 0 257 104" fill="none" xmlns="http://www.w3.org/2000/svg">
<path fill-rule="evenodd" clip-rule="evenodd" d="M0 0L7.07693 46.1722H35.6127V60.8507H7.05554L3.48501 75.1004H78.4448L82.0154 60.8507H49.8877V46.1722H71.375V0H0ZM57.1072 32.2155H20.5965L17.8455 14.3212H57.1072V32.2155ZM74.9598 21.4746V0L139.572 7.16059L128.504 57.2704H110.651L114.221 46.5295H92.8054V32.2155H117.792L121.363 21.4746H74.9598ZM142.536 14L133 56.9564H147.304L150.419 42.9063H154.263L151.074 57.2704H165.371L171.728 28.6352L174.906 14.314H160.61L157.44 28.5923H153.593L153.654 28.3212L156.832 14H142.536ZM114.001 104.007L107.066 60.8507L164.216 61.0579L156.833 104.007H114.001ZM126.964 91.0724H144.133L147.09 73.8569L124.185 73.7783L126.964 91.0724ZM178.477 0L257 7.16059L253.437 21.4746H238.146L232.021 43.0636H249.866L246.296 57.2704H174.906L178.477 43.0636H189.181L195.001 21.4746H178.42L178.477 0ZM203.463 43.0636H217.746L223.565 21.4746H209.583L203.463 43.0636ZM171.336 60.8507L167.765 75.1004H242.725L246.296 60.8507H171.336Z" fill="#747474"/>
</svg>
