<svg width="85" height="85" viewBox="0 0 85 85" fill="none" xmlns="http://www.w3.org/2000/svg">
<rect width="85" height="85" rx="10" fill="#E8E8E8"/>
<path d="M49.4497 44.3535L48.0132 52.6904H39.6802L38.3315 44.3125L49.4497 44.3535ZM42.2026 50.1797H45.5425L46.1177 46.9521L41.6616 46.9375L42.2026 50.1797ZM31.3862 41.4629H27.2065V44.3125H33.4575L32.7632 47.0791H18.1792L18.8745 44.3125H24.4292V41.4629H18.8774L17.5005 32.5H31.3862V41.4629ZM64.7231 47.0791H50.1401L50.8345 44.3125H65.4185L64.7231 47.0791ZM67.5005 33.8906L66.8071 36.6689H64.2075L62.8833 41.333H66.1245L65.4312 43.627H51.561L52.2544 41.333H53.7476L55.0054 36.6689H52.2124L52.2241 32.5L67.5005 33.8906ZM44.6548 33.8906L42.5015 43.6172H39.0278L39.7231 41.5322H35.5562V38.7539H40.4175L41.1118 36.6689H32.0845V32.5L44.6548 33.8906ZM47.4126 38.0508H48.1313L48.7476 35.2783H51.5288L50.9106 38.0586L49.6743 43.6172H46.8931L47.5132 40.8291H46.7954L46.1753 43.6172H43.3921L45.2476 35.2783H48.0288L47.4126 38.0508ZM56.8071 41.333H59.8257L61.0835 36.6689H58.1294L56.8071 41.333ZM21.5073 38.7539H28.6108V35.2803H20.9722L21.5073 38.7539Z" fill="#C4C4C4"/>
</svg>
