<svg width="35" height="35" viewBox="0 0 35 35" fill="none" xmlns="http://www.w3.org/2000/svg">
<path d="M9.72252 11.1371C9.56666 12.7996 9.45728 15.7418 10.4389 16.9942C10.4389 16.9942 9.97681 13.7621 14.1194 9.70705C15.7874 8.07463 16.1729 5.85432 15.5905 4.18908C15.2596 3.24572 14.6553 2.46642 14.1303 1.92228C13.8241 1.60236 14.0592 1.07463 14.5049 1.09377C17.201 1.21408 21.5706 1.9633 23.4272 6.62267C24.242 8.66799 24.3022 10.7817 23.9139 12.9309C23.6678 14.3035 22.7928 17.3551 24.7889 17.7297C26.2135 17.9977 26.9026 16.8656 27.2116 16.0508C27.3401 15.7117 27.7858 15.627 28.0264 15.8977C30.4327 18.6348 30.6378 21.8586 30.1401 24.634C29.1776 29.9988 23.7444 33.9035 18.3467 33.9035C11.6038 33.9035 6.23619 30.0453 4.84439 23.0617C4.28384 20.2426 4.56822 14.6645 8.91588 10.727C9.23853 10.4317 9.76627 10.6942 9.72252 11.1371Z" fill="#5D5D5D"/>
<path d="M20.811 21.1692C18.3255 17.97 19.4384 14.3196 20.0481 12.8649C20.1302 12.6735 19.9114 12.493 19.7392 12.6106C18.67 13.338 16.4798 15.0497 15.4599 17.4587C14.079 20.7153 14.1774 22.3095 14.995 24.2563C15.4872 25.4294 14.9157 25.6782 14.6286 25.722C14.3497 25.7657 14.0927 25.5798 13.8876 25.3856C13.2977 24.8191 12.8773 24.0995 12.6735 23.3075C12.6298 23.138 12.4083 23.0915 12.3071 23.2309C11.5415 24.2891 11.145 25.9872 11.1259 27.1876C11.0657 30.8981 14.1309 33.9059 17.8388 33.9059C22.5118 33.9059 25.9161 28.738 23.2309 24.4177C22.4517 23.1598 21.7188 22.3368 20.811 21.1692Z" fill="white"/>
</svg>
