<svg width="100%" height="100%" viewBox="0 0 133 96" fill="none" xmlns="http://www.w3.org/2000/svg">
<path d="M3.05828 77.6597L3.05449 77.4094L3.991 76.4236C4.31708 76.0786 4.47253 75.8928 4.47253 75.6388C4.47253 75.3582 4.23366 75.1724 3.92655 75.1724C3.60047 75.1724 3.39194 75.3809 3.39194 75.6881H3.06965C3.06586 75.2027 3.44123 74.8767 3.93792 74.8767C4.43462 74.8767 4.79102 75.2103 4.79102 75.6388C4.79102 75.9459 4.64695 76.1847 4.16162 76.6852L3.53223 77.3336V77.3563H4.84031V77.6597H3.05828ZM7.95759 74.5961V77.9668H7.66564V76.2037H7.19927V77.8H6.91491V74.6871H7.19927V75.9573H7.66564V74.5961H7.95759ZM6.53196 75.0359C6.52817 75.8928 6.22863 76.7042 5.25799 77.2426L5.08358 77.0341C5.86654 76.598 6.19072 75.98 6.24001 75.2824H5.21249V75.0359H6.53196Z" fill="#555555"/>
<path d="M15.1346 94.3273V94.0467L16.3706 92.1433H16.7915V94.0277H17.1744V94.3273H16.7915V94.8884H16.4654V94.3273H15.1346ZM15.5024 94.0277H16.4654V92.5756H16.4313L15.5024 94.005V94.0277ZM17.5997 94.9112C17.467 94.9112 17.3532 94.8012 17.357 94.6647C17.3532 94.532 17.467 94.4221 17.5997 94.4221C17.7324 94.4221 17.8424 94.532 17.8424 94.6647C17.8424 94.8012 17.7324 94.9112 17.5997 94.9112ZM18.2145 94.8884L18.2107 94.6382L19.1473 93.6524C19.4733 93.3073 19.6288 93.1216 19.6288 92.8675C19.6288 92.5869 19.3899 92.4012 19.0828 92.4012C18.7567 92.4012 18.5482 92.6097 18.5482 92.9168H18.2259C18.2221 92.4315 18.5975 92.1054 19.0942 92.1054C19.5909 92.1054 19.9473 92.4391 19.9473 92.8675C19.9473 93.1746 19.8032 93.4135 19.3179 93.914L18.6885 94.5624V94.5851H19.9966V94.8884H18.2145ZM21.256 94.9263C20.6455 94.9263 20.2967 94.4145 20.2967 93.5159C20.2967 92.6249 20.6531 92.1054 21.256 92.1054C21.8588 92.1054 22.2152 92.6249 22.2152 93.5159C22.2152 94.4145 21.8626 94.9263 21.256 94.9263ZM21.256 94.623C21.6503 94.623 21.8816 94.2249 21.8816 93.5159C21.8816 92.8069 21.6503 92.4012 21.256 92.4012C20.8617 92.4012 20.6266 92.8069 20.6266 93.5159C20.6266 94.2249 20.8579 94.623 21.256 94.623Z" fill="#555555"/>
<path d="M30.4852 94.3273V94.0467L31.7213 92.1433H32.1421V94.0277H32.5251V94.3273H32.1421V94.8884H31.8161V94.3273H30.4852ZM30.853 94.0277H31.8161V92.5756H31.7819L30.853 94.005V94.0277ZM32.9503 94.9112C32.8176 94.9112 32.7039 94.8012 32.7077 94.6647C32.7039 94.532 32.8176 94.4221 32.9503 94.4221C33.083 94.4221 33.193 94.532 33.193 94.6647C33.193 94.8012 33.083 94.9112 32.9503 94.9112ZM33.5652 94.8884L33.5614 94.6382L34.4979 93.6524C34.824 93.3073 34.9794 93.1216 34.9794 92.8675C34.9794 92.5869 34.7406 92.4012 34.4334 92.4012C34.1074 92.4012 33.8988 92.6097 33.8988 92.9168H33.5766C33.5728 92.4315 33.9481 92.1054 34.4448 92.1054C34.9415 92.1054 35.2979 92.4391 35.2979 92.8675C35.2979 93.1746 35.1538 93.4135 34.6685 93.914L34.0391 94.5624V94.5851H35.3472V94.8884H33.5652ZM36.6787 92.1433V94.8884H36.3336V92.4997H36.3185L35.6511 92.9434V92.5983L36.3336 92.1433H36.6787Z" fill="#555555"/>
<path d="M45.3638 94.3273V94.0467L46.5998 92.1433H47.0207V94.0277H47.4036V94.3273H47.0207V94.8884H46.6946V94.3273H45.3638ZM45.7316 94.0277H46.6946V92.5756H46.6605L45.7316 94.005V94.0277ZM47.8289 94.9112C47.6962 94.9112 47.5825 94.8012 47.5862 94.6647C47.5825 94.532 47.6962 94.4221 47.8289 94.4221C47.9616 94.4221 48.0716 94.532 48.0716 94.6647C48.0716 94.8012 47.9616 94.9112 47.8289 94.9112ZM48.4437 94.8884L48.44 94.6382L49.3765 93.6524C49.7025 93.3073 49.858 93.1216 49.858 92.8675C49.858 92.5869 49.6191 92.4012 49.312 92.4012C48.9859 92.4012 48.7774 92.6097 48.7774 92.9168H48.4551C48.4513 92.4315 48.8267 92.1054 49.3234 92.1054C49.8201 92.1054 50.1765 92.4391 50.1765 92.8675C50.1765 93.1746 50.0324 93.4135 49.5471 93.914L48.9177 94.5624V94.5851H50.2258V94.8884H48.4437ZM50.5866 94.8884L50.5828 94.6382L51.5193 93.6524C51.8454 93.3073 52.0008 93.1216 52.0008 92.8675C52.0008 92.5869 51.762 92.4012 51.4549 92.4012C51.1288 92.4012 50.9202 92.6097 50.9202 92.9168H50.598C50.5942 92.4315 50.9695 92.1054 51.4662 92.1054C51.9629 92.1054 52.3193 92.4391 52.3193 92.8675C52.3193 93.1746 52.1753 93.4135 51.6899 93.914L51.0605 94.5624V94.5851H52.3686V94.8884H50.5866Z" fill="#555555"/>
<path d="M60.8343 94.3273V94.0467L62.0704 92.1433H62.4912V94.0277H62.8742V94.3273H62.4912V94.8884H62.1651V94.3273H60.8343ZM61.2021 94.0277H62.1651V92.5756H62.131L61.2021 94.005V94.0277ZM63.2994 94.9112C63.1667 94.9112 63.053 94.8012 63.0568 94.6647C63.053 94.532 63.1667 94.4221 63.2994 94.4221C63.4321 94.4221 63.5421 94.532 63.5421 94.6647C63.5421 94.8012 63.4321 94.9112 63.2994 94.9112ZM63.9143 94.8884L63.9105 94.6382L64.847 93.6524C65.1731 93.3073 65.3285 93.1216 65.3285 92.8675C65.3285 92.5869 65.0897 92.4012 64.7825 92.4012C64.4565 92.4012 64.2479 92.6097 64.2479 92.9168H63.9256C63.9219 92.4315 64.2972 92.1054 64.7939 92.1054C65.2906 92.1054 65.647 92.4391 65.647 92.8675C65.647 93.1746 65.5029 93.4135 65.0176 93.914L64.3882 94.5624V94.5851H65.6963V94.8884H63.9143ZM67.005 94.9263C66.459 94.9263 66.0685 94.6344 66.0495 94.1984H66.3946C66.4135 94.46 66.6751 94.623 67.0012 94.623C67.3614 94.623 67.6268 94.4259 67.6268 94.1415C67.6268 93.842 67.388 93.6296 66.9595 93.6296H66.7358V93.3301H66.9595C67.2932 93.3301 67.5244 93.1443 67.5244 92.8599C67.5244 92.5869 67.3235 92.4012 67.0126 92.4012C66.7206 92.4012 66.4514 92.5642 66.4363 92.8334H66.1064C66.1254 92.3974 66.5273 92.1054 67.0164 92.1054C67.5396 92.1054 67.8581 92.4467 67.8543 92.841C67.8581 93.1519 67.6761 93.3832 67.388 93.4628V93.4818C67.7444 93.5386 67.9643 93.7927 67.9605 94.1415C67.9643 94.5927 67.551 94.9263 67.005 94.9263Z" fill="#555555"/>
<path d="M76.2603 94.3273V94.0467L77.4964 92.1433H77.9172V94.0277H78.3002V94.3273H77.9172V94.8884H77.5912V94.3273H76.2603ZM76.6281 94.0277H77.5912V92.5756H77.557L76.6281 94.005V94.0277ZM78.7254 94.9112C78.5927 94.9112 78.479 94.8012 78.4828 94.6647C78.479 94.532 78.5927 94.4221 78.7254 94.4221C78.8581 94.4221 78.9681 94.532 78.9681 94.6647C78.9681 94.8012 78.8581 94.9112 78.7254 94.9112ZM79.3403 94.8884L79.3365 94.6382L80.273 93.6524C80.5991 93.3073 80.7545 93.1216 80.7545 92.8675C80.7545 92.5869 80.5157 92.4012 80.2085 92.4012C79.8825 92.4012 79.6739 92.6097 79.6739 92.9168H79.3517C79.3479 92.4315 79.7232 92.1054 80.2199 92.1054C80.7166 92.1054 81.073 92.4391 81.073 92.8675C81.073 93.1746 80.9289 93.4135 80.4436 93.914L79.8142 94.5624V94.5851H81.1223V94.8884H79.3403ZM81.3542 94.3273V94.0467L82.5903 92.1433H83.0111V94.0277H83.3941V94.3273H83.0111V94.8884H82.685V94.3273H81.3542ZM81.722 94.0277H82.685V92.5756H82.6509L81.722 94.005V94.0277Z" fill="#555555"/>
<path d="M91.5702 94.3273V94.0467L92.8062 92.1433H93.2271V94.0277H93.61V94.3273H93.2271V94.8884H92.901V94.3273H91.5702ZM91.938 94.0277H92.901V92.5756H92.8669L91.938 94.005V94.0277ZM94.0353 94.9112C93.9026 94.9112 93.7888 94.8012 93.7926 94.6647C93.7888 94.532 93.9026 94.4221 94.0353 94.4221C94.168 94.4221 94.278 94.532 94.278 94.6647C94.278 94.8012 94.168 94.9112 94.0353 94.9112ZM94.6501 94.8884L94.6463 94.6382L95.5829 93.6524C95.9089 93.3073 96.0644 93.1216 96.0644 92.8675C96.0644 92.5869 95.8255 92.4012 95.5184 92.4012C95.1923 92.4012 94.9838 92.6097 94.9838 92.9168H94.6615C94.6577 92.4315 95.0331 92.1054 95.5298 92.1054C96.0265 92.1054 96.3829 92.4391 96.3829 92.8675C96.3829 93.1746 96.2388 93.4135 95.7535 93.914L95.1241 94.5624V94.5851H96.4322V94.8884H94.6501ZM97.6878 94.9263C97.1911 94.9263 96.8157 94.6192 96.7968 94.1984H97.1266C97.1532 94.4448 97.392 94.6268 97.6878 94.6268C98.0442 94.6268 98.302 94.3652 98.302 94.0202C98.302 93.6638 98.0328 93.4021 97.665 93.3983C97.4338 93.3946 97.2555 93.4666 97.1532 93.6448H96.8233L97.0167 92.1433H98.503V92.4467H97.301L97.1987 93.2505H97.2252C97.3465 93.1557 97.5323 93.0912 97.7257 93.0912C98.2489 93.0912 98.6357 93.478 98.6357 94.0126C98.6357 94.5434 98.2338 94.9263 97.6878 94.9263Z" fill="#555555"/>
<path d="M107.069 94.3273V94.0467L108.305 92.1433H108.726V94.0277H109.109V94.3273H108.726V94.8884H108.4V94.3273H107.069ZM107.436 94.0277H108.4V92.5756H108.365L107.436 94.005V94.0277ZM109.534 94.9112C109.401 94.9112 109.287 94.8012 109.291 94.6647C109.287 94.532 109.401 94.4221 109.534 94.4221C109.667 94.4221 109.776 94.532 109.776 94.6647C109.776 94.8012 109.667 94.9112 109.534 94.9112ZM110.149 94.8884L110.145 94.6382L111.081 93.6524C111.407 93.3073 111.563 93.1216 111.563 92.8675C111.563 92.5869 111.324 92.4012 111.017 92.4012C110.691 92.4012 110.482 92.6097 110.482 92.9168H110.16C110.156 92.4315 110.532 92.1054 111.028 92.1054C111.525 92.1054 111.881 92.4391 111.881 92.8675C111.881 93.1746 111.737 93.4135 111.252 93.914L110.623 94.5624V94.5851H111.931V94.8884H110.149ZM113.247 94.9263C112.769 94.9188 112.246 94.6382 112.246 93.622C112.246 92.6514 112.644 92.1054 113.289 92.1054C113.77 92.1054 114.108 92.4012 114.18 92.8334H113.842C113.778 92.5907 113.596 92.4087 113.289 92.4087C112.837 92.4087 112.568 92.7955 112.568 93.4552H112.602C112.762 93.2277 113.012 93.0912 113.308 93.0912C113.797 93.0912 114.202 93.4704 114.202 94.0012C114.202 94.5169 113.823 94.9301 113.247 94.9263ZM113.247 94.6268C113.603 94.6268 113.869 94.3462 113.873 94.005C113.869 93.6675 113.615 93.3908 113.255 93.3908C112.894 93.3908 112.618 93.6827 112.614 94.0088C112.614 94.3311 112.879 94.6268 113.247 94.6268Z" fill="#555555"/>
<path d="M122.718 94.3273V94.0467L123.954 92.1433H124.375V94.0277H124.758V94.3273H124.375V94.8884H124.049V94.3273H122.718ZM123.086 94.0277H124.049V92.5756H124.015L123.086 94.005V94.0277ZM125.183 94.9112C125.05 94.9112 124.937 94.8012 124.94 94.6647C124.937 94.532 125.05 94.4221 125.183 94.4221C125.316 94.4221 125.426 94.532 125.426 94.6647C125.426 94.8012 125.316 94.9112 125.183 94.9112ZM125.798 94.8884L125.794 94.6382L126.731 93.6524C127.057 93.3073 127.212 93.1216 127.212 92.8675C127.212 92.5869 126.973 92.4012 126.666 92.4012C126.34 92.4012 126.132 92.6097 126.132 92.9168H125.809C125.805 92.4315 126.181 92.1054 126.678 92.1054C127.174 92.1054 127.531 92.4391 127.531 92.8675C127.531 93.1746 127.387 93.4135 126.901 93.914L126.272 94.5624V94.5851H127.58V94.8884H125.798ZM128.028 94.8884L129.287 92.4656V92.4467H127.835V92.1433H129.639V92.4618L128.384 94.8884H128.028Z" fill="#555555"/>
<path d="M2.60376 64.9667V64.6861L3.83981 62.7827H4.26068V64.6671H4.64363V64.9667H4.26068V65.5278H3.9346V64.9667H2.60376ZM2.97155 64.6671H3.9346V63.215H3.90048L2.97155 64.6444V64.6671ZM7.7154 62.4642V65.8349H7.42345V64.0719H6.95709V65.6681H6.67272V62.5552H6.95709V63.8254H7.42345V62.4642H7.7154ZM6.28977 62.9041C6.28598 63.761 5.98645 64.5724 5.01581 65.1108L4.84139 64.9022C5.62435 64.4662 5.94853 63.8482 5.99782 63.1505H4.97031V62.9041H6.28977Z" fill="#555555"/>
<path d="M3.66919 53.4315C3.19146 53.4239 2.66822 53.1433 2.66822 52.1272C2.66822 51.1565 3.06634 50.6105 3.7109 50.6105C4.19243 50.6105 4.52988 50.9063 4.60192 51.3385H4.26447C4.20001 51.0959 4.01802 50.9139 3.7109 50.9139C3.25971 50.9139 2.9905 51.3006 2.9905 51.9603H3.02463C3.18387 51.7328 3.43412 51.5964 3.72986 51.5964C4.21897 51.5964 4.62467 51.9755 4.62467 52.5063C4.62467 53.022 4.24551 53.4353 3.66919 53.4315ZM3.66919 53.1319C4.0256 53.1319 4.29101 52.8514 4.2948 52.5101C4.29101 52.1727 4.03698 51.8959 3.67678 51.8959C3.31658 51.8959 3.03979 52.1878 3.036 52.5139C3.036 52.8362 3.30141 53.1319 3.66919 53.1319ZM7.7154 50.33V53.7007H7.42345V51.9376H6.95709V53.5338H6.67272V50.421H6.95709V51.6911H7.42345V50.33H7.7154ZM6.28977 50.7698C6.28598 51.6267 5.98645 52.4381 5.01581 52.9765L4.84139 52.7679C5.62435 52.3319 5.94853 51.7139 5.99782 51.0162H4.97031V50.7698H6.28977Z" fill="#555555"/>
<path d="M3.90001 41.2982C3.32369 41.2982 2.92178 40.9797 2.92557 40.5323C2.92178 40.1759 3.16823 39.8839 3.48293 39.8346V39.8195C3.20994 39.755 3.03174 39.5048 3.03174 39.2052C3.03174 38.7844 3.39952 38.4772 3.90001 38.4772C4.40049 38.4772 4.76827 38.7844 4.77207 39.2052C4.76827 39.5048 4.58628 39.755 4.31708 39.8195V39.8346C4.62799 39.8839 4.87444 40.1759 4.87823 40.5323C4.87444 40.9797 4.47253 41.2982 3.90001 41.2982ZM3.90001 40.9986C4.29433 40.9986 4.53699 40.8015 4.53699 40.5133C4.53699 40.21 4.26779 39.9863 3.90001 39.9863C3.53222 39.9863 3.25923 40.21 3.26682 40.5133C3.25923 40.8015 3.50568 40.9986 3.90001 40.9986ZM3.90001 39.6981C4.21092 39.6981 4.43841 39.5086 4.43841 39.2318C4.43841 38.9588 4.22229 38.773 3.90001 38.773C3.57393 38.773 3.3616 38.9588 3.3616 39.2318C3.3616 39.5086 3.58531 39.6981 3.90001 39.6981ZM7.95759 38.1967V41.5674H7.66564V39.8043H7.19927V41.4005H6.91491V38.2877H7.19927V39.5578H7.66564V38.1967H7.95759ZM6.53196 38.6365C6.52817 39.4934 6.22863 40.3048 5.25799 40.8432L5.08358 40.6346C5.86654 40.1986 6.19072 39.5806 6.24001 38.8829H5.21249V38.6365H6.53196Z" fill="#555555"/>
<path d="M2.72905 26.3833V29.1284H2.38402V26.7397H2.36886L1.70154 27.1833V26.8383L2.38402 26.3833H2.72905ZM4.22354 29.1663C3.6131 29.1663 3.26427 28.6545 3.26427 27.7559C3.26427 26.8649 3.62068 26.3454 4.22354 26.3454C4.8264 26.3454 5.1828 26.8649 5.1828 27.7559C5.1828 28.6545 4.83019 29.1663 4.22354 29.1663ZM4.22354 28.863C4.61786 28.863 4.84915 28.4649 4.84915 27.7559C4.84915 27.0468 4.61786 26.6412 4.22354 26.6412C3.82921 26.6412 3.59414 27.0468 3.59414 27.7559C3.59414 28.4649 3.82542 28.863 4.22354 28.863ZM8.25837 26.0648V29.4355H7.96642V27.6725H7.50006V29.2687H7.21569V26.1558H7.50006V27.426H7.96642V26.0648H8.25837ZM6.83274 26.5047C6.82895 27.3615 6.52942 28.1729 5.55877 28.7113L5.38436 28.5028C6.16732 28.0668 6.4915 27.4488 6.54079 26.7511H5.51328V26.5047H6.83274Z" fill="#555555"/>
<path d="M2.76318 14.25V16.9951H2.41815V14.6064H2.40298L1.73566 15.05V14.705L2.41815 14.25H2.76318ZM3.35906 16.9951L3.35527 16.7449L4.29179 15.7591C4.61786 15.414 4.77331 15.2282 4.77331 14.9742C4.77331 14.6936 4.53445 14.5079 4.22733 14.5079C3.90125 14.5079 3.69272 14.7164 3.69272 15.0235H3.37044C3.36664 14.5382 3.74201 14.2121 4.2387 14.2121C4.7354 14.2121 5.09181 14.5458 5.09181 14.9742C5.09181 15.2813 4.94773 15.5202 4.46241 16.0207L3.83301 16.669V16.6918H5.1411V16.9951H3.35906ZM8.25837 13.9315V17.3022H7.96642V15.5392H7.50006V17.1354H7.21569V14.0225H7.50006V15.2927H7.96642V13.9315H8.25837ZM6.83274 14.3714C6.82895 15.2282 6.52942 16.0396 5.55877 16.578L5.38436 16.3695C6.16732 15.9335 6.4915 15.3155 6.54079 14.6178H5.51328V14.3714H6.83274Z" fill="#555555"/>
<path d="M2.6191 2.1177V4.86279H2.27407V2.47411H2.2589L1.59159 2.91772V2.57269L2.27407 2.1177H2.6191ZM3.14673 4.30164V4.02107L4.38278 2.1177H4.80365V4.00211H5.18659V4.30164H4.80365V4.86279H4.47757V4.30164H3.14673ZM3.51451 4.00211H4.47757V2.54994H4.44345L3.51451 3.97936V4.00211ZM8.25837 1.79921V5.16991H7.96642V3.40683H7.50006V5.00308H7.21569V1.89021H7.50006V3.16038H7.96642V1.79921H8.25837ZM6.83274 2.23903C6.82895 3.09592 6.52942 3.90732 5.55877 4.44572L5.38436 4.23718C6.16732 3.80115 6.4915 3.18313 6.54079 2.48548H5.51328V2.23903H6.83274Z" fill="#555555"/>
<line x1="12.248" y1="88.0977" x2="132.607" y2="88.0977" stroke="#E8E8E8" stroke-width="0.24266"/>
<line x1="12.248" y1="75.9644" x2="132.607" y2="75.9644" stroke="#E8E8E8" stroke-width="0.24266"/>
<line x1="12.248" y1="63.832" x2="132.607" y2="63.8321" stroke="#E8E8E8" stroke-width="0.24266"/>
<line x1="12.248" y1="51.6992" x2="132.607" y2="51.6992" stroke="#E8E8E8" stroke-width="0.24266"/>
<line x1="12.248" y1="39.5659" x2="132.607" y2="39.5659" stroke="#E8E8E8" stroke-width="0.24266"/>
<line x1="12.248" y1="27.4326" x2="132.607" y2="27.4326" stroke="#E8E8E8" stroke-width="0.24266"/>
<line x1="12.248" y1="15.3003" x2="132.607" y2="15.3003" stroke="#E8E8E8" stroke-width="0.24266"/>
<line x1="12.248" y1="3.16749" x2="132.607" y2="3.1675" stroke="#E8E8E8" stroke-width="0.24266"/>
<rect x="12.4912" y="75.8425" width="12.133" height="12.3757" fill="#E9FAF6" style="mix-blend-mode:multiply"/>
<rect x="12.6125" y="75.9639" width="11.8903" height="12.133" stroke="#27CFA5" stroke-opacity="0.5" stroke-width="0.24266"/>
<rect x="27.7773" y="63.7102" width="12.133" height="24.5087" fill="#D4F5ED" style="mix-blend-mode:multiply"/>
<rect x="27.8987" y="63.8315" width="11.8903" height="24.266" stroke="#27CFA5" stroke-opacity="0.5" stroke-width="0.24266"/>
<rect x="42.8232" y="51.5779" width="12.133" height="36.6417" fill="#BEF1E4" style="mix-blend-mode:multiply"/>
<rect x="42.9446" y="51.6992" width="11.8903" height="36.399" stroke="#27CFA5" stroke-opacity="0.5" stroke-width="0.24266"/>
<rect x="58.3535" y="39.4446" width="12.133" height="48.7747" fill="#A9ECDB" style="mix-blend-mode:multiply"/>
<rect x="58.4748" y="39.5659" width="11.8903" height="48.532" stroke="#27CFA5" stroke-opacity="0.5" stroke-width="0.24266"/>
<rect x="73.8838" y="27.3118" width="12.133" height="60.9077" fill="#93E7D2" style="mix-blend-mode:multiply"/>
<rect x="74.0051" y="27.4331" width="11.8903" height="60.665" stroke="#27CFA5" stroke-opacity="0.5" stroke-width="0.24266"/>
<rect x="89.1719" y="15.1775" width="12.133" height="73.0407" fill="#7DE2C9" style="mix-blend-mode:multiply"/>
<rect x="89.2932" y="15.2988" width="11.8903" height="72.798" stroke="#27CFA5" stroke-opacity="0.5" stroke-width="0.24266"/>
<rect x="104.701" y="3.04614" width="12.133" height="85.1737" fill="#68DDC0" style="mix-blend-mode:multiply"/>
<rect x="104.823" y="3.16747" width="11.8903" height="84.9311" stroke="#27CFA5" stroke-opacity="0.5" stroke-width="0.24266"/>
<rect x="120.232" y="3.04614" width="12.133" height="85.1737" fill="#52D9B7" style="mix-blend-mode:multiply"/>
<rect x="120.354" y="3.16747" width="11.8903" height="84.9311" stroke="#27CFA5" stroke-opacity="0.5" stroke-width="0.24266"/>
</svg>
