<svg width="100%" height="100%" viewBox="0 0 62 115" fill="none" xmlns="http://www.w3.org/2000/svg">
<rect x="1.00805" y="1.05468" width="59.9371" height="113.322" rx="2.30527" fill="white"/>
<rect x="1.00805" y="1.05468" width="59.9371" height="113.322" rx="2.30527" stroke="#E8E8E8" stroke-width="0.24266"/>
<path d="M5.96299 12.5733V12.0804L7.44644 9.78177H8.21423V12.0662H8.66448V12.5733H8.21423V13.2131H7.62654V12.5733H5.96299ZM6.59334 12.0662H7.63602V10.4832H7.5981L6.59334 12.0425V12.0662ZM12.5106 9.35522V11.8529H11.9798V11.6776H11.1789V11.3553H11.9798V9.35522H12.5106ZM8.9134 10.9003C9.7428 10.9003 10.776 10.8908 11.6955 10.8008L11.7239 11.1325C11.3329 11.187 10.93 11.2202 10.5343 11.2368V11.8577H10.0129V11.2605C9.64564 11.27 9.29255 11.2723 8.97027 11.27L8.9134 10.9003ZM12.5106 11.9856V12.9477H10.0746V13.2226H12.6244V13.597H9.55796V12.6017H11.9893V12.3458H9.539V11.9856H12.5106ZM10.2973 9.42157C10.9324 9.42157 11.3684 9.6775 11.3684 10.0661C11.3684 10.4643 10.9324 10.706 10.2973 10.706C9.64801 10.706 9.21672 10.4643 9.21672 10.0661C9.21672 9.6775 9.64801 9.42157 10.2973 9.42157ZM10.2973 9.77229C9.93712 9.77229 9.71436 9.88604 9.7191 10.0661C9.71436 10.2462 9.93712 10.3552 10.2973 10.3552C10.648 10.3552 10.8755 10.2462 10.8755 10.0661C10.8755 9.88604 10.648 9.77229 10.2973 9.77229ZM14.2123 13.2131V12.7676L15.4256 11.597C15.7716 11.251 15.9517 11.0472 15.9517 10.7581C15.9517 10.4406 15.7005 10.2368 15.364 10.2368C15.0085 10.2368 14.781 10.4595 14.7858 10.8055H14.1981C14.1933 10.1562 14.6815 9.73437 15.3687 9.73437C16.0702 9.73437 16.5441 10.1514 16.5441 10.7297C16.5441 11.1183 16.3545 11.4311 15.6815 12.0662L15.0701 12.6728V12.6965H16.5962V13.2131H14.2123ZM17.1674 13.2131L18.6556 10.3221V10.2984H16.9305V9.78177H19.2955V10.3078L17.8073 13.2131H17.1674ZM20.7672 9.48792C21.4165 9.48792 21.8999 9.89078 21.9046 10.4548C21.8999 11.0235 21.4165 11.4216 20.7672 11.4216C20.1131 11.4216 19.6297 11.0235 19.6297 10.4548C19.6297 9.89078 20.1131 9.48792 20.7672 9.48792ZM20.7672 9.92395C20.407 9.92395 20.1415 10.1277 20.1415 10.4548C20.1415 10.7865 20.407 10.9951 20.7672 10.9951C21.1274 10.9951 21.3928 10.7865 21.3928 10.4548C21.3928 10.1277 21.1274 9.92395 20.7672 9.92395ZM23.1227 9.35048V11.5164H22.5918V9.35048H23.1227ZM23.1227 11.7012V12.8198H20.8051V13.1657H23.2506V13.5828H20.2885V12.4311H22.5966V12.1136H20.279V11.7012H23.1227Z" fill="#555555"/>
<rect x="5.81398" y="26.002" width="47.8992" height="14.5589" rx="1.40117" fill="white"/>
<rect x="5.81398" y="26.002" width="47.8992" height="14.5589" rx="1.40117" stroke="#E8E8E8" stroke-width="0.147491"/>
<path d="M13.8924 33.0412V33.3369H13.3654V35.1H13.0052V31.7065H13.3654V33.0412H13.8924ZM11.2042 32.0364V33.9473C11.6781 33.9473 12.1729 33.9075 12.7132 33.7957L12.7549 34.099C12.1748 34.2166 11.6364 34.2469 11.1284 34.2469H10.8478V32.0364H11.2042ZM15.1039 31.9492C15.6423 31.9454 16.0252 32.2791 16.029 32.7568C16.0252 33.2345 15.6423 33.5682 15.1039 33.5682C14.5693 33.5682 14.175 33.2345 14.1788 32.7568C14.175 32.2791 14.5693 31.9454 15.1039 31.9492ZM15.1039 32.2601C14.774 32.2601 14.5314 32.4573 14.5352 32.7568C14.5314 33.0563 14.774 33.2535 15.1039 33.2535C15.4338 33.2535 15.6764 33.0563 15.6764 32.7568C15.6764 32.4573 15.4338 32.2601 15.1039 32.2601ZM16.8063 31.7065V35.1114H16.4461V31.7065H16.8063ZM14.0157 34.0801C14.6337 34.0801 15.4906 34.0725 16.2338 33.9663L16.2603 34.2279C15.4906 34.3758 14.6679 34.3796 14.0612 34.3796L14.0157 34.0801ZM20.8483 31.8468V33.0108H19.87V33.4052H21.2426V33.6971H18.1449V33.4052H19.5136V33.0108H18.5392V31.8468H20.8483ZM18.8918 32.1312V32.7227H20.4919V32.1312H18.8918ZM20.8634 34.0194V35.1038H20.4994V34.3038H18.4899V34.0194H20.8634ZM24.5318 34.4061V34.7019H21.4228V34.4061H22.2569V33.6516H21.6958V33.3597H22.2038V32.3018H21.6882V32.0061H24.2475V32.3018H23.728V33.3597H24.2361V33.6516H23.6787V34.4061H24.5318ZM22.5602 33.3597H23.3754V32.3018H22.5602V33.3597ZM22.6171 34.4061H23.3185V33.6516H22.6171V34.4061ZM26.7311 32.0364V34.7815H26.3102V32.4535H26.2951L25.6391 32.8819V32.4838L26.3216 32.0364H26.7311Z" fill="#555555"/>
<rect x="5.81398" y="42.7442" width="47.8992" height="14.5589" rx="1.40117" fill="white"/>
<rect x="5.81398" y="42.7442" width="47.8992" height="14.5589" rx="1.40117" stroke="#E8E8E8" stroke-width="0.147491"/>
<path d="M13.8924 49.7834V50.0791H13.3654V51.8422H13.0052V48.4487H13.3654V49.7834H13.8924ZM11.2042 48.7786V50.6895C11.6781 50.6895 12.1729 50.6497 12.7132 50.5379L12.7549 50.8412C12.1748 50.9587 11.6364 50.9891 11.1284 50.9891H10.8478V48.7786H11.2042ZM15.1039 48.6914C15.6423 48.6876 16.0252 49.0212 16.029 49.499C16.0252 49.9767 15.6423 50.3104 15.1039 50.3104C14.5693 50.3104 14.175 49.9767 14.1788 49.499C14.175 49.0212 14.5693 48.6876 15.1039 48.6914ZM15.1039 49.0023C14.774 49.0023 14.5314 49.1995 14.5352 49.499C14.5314 49.7985 14.774 49.9957 15.1039 49.9957C15.4338 49.9957 15.6764 49.7985 15.6764 49.499C15.6764 49.1995 15.4338 49.0023 15.1039 49.0023ZM16.8063 48.4487V51.8535H16.4461V48.4487H16.8063ZM14.0157 50.8222C14.6337 50.8222 15.4906 50.8147 16.2338 50.7085L16.2603 50.9701C15.4906 51.118 14.6679 51.1218 14.0612 51.1218L14.0157 50.8222ZM20.8483 48.589V49.753H19.87V50.1473H21.2426V50.4393H18.1449V50.1473H19.5136V49.753H18.5392V48.589H20.8483ZM18.8918 48.8734V49.4649H20.4919V48.8734H18.8918ZM20.8634 50.7616V51.846H20.4994V51.0459H18.4899V50.7616H20.8634ZM24.5318 51.1483V51.4441H21.4228V51.1483H22.2569V50.3938H21.6958V50.1018H22.2038V49.044H21.6882V48.7483H24.2475V49.044H23.728V50.1018H24.2361V50.3938H23.6787V51.1483H24.5318ZM22.5602 50.1018H23.3754V49.044H22.5602V50.1018ZM22.6171 51.1483H23.3185V50.3938H22.6171V51.1483ZM25.6884 51.5237V51.2204L26.6401 50.2611C26.9396 49.9464 27.0913 49.772 27.0913 49.5331C27.0913 49.2639 26.8714 49.0895 26.5832 49.0895C26.2799 49.0895 26.0827 49.2829 26.0827 49.5748H25.6884C25.6846 49.0743 26.0676 48.7407 26.5908 48.7407C27.1216 48.7407 27.4856 49.0743 27.4894 49.5217C27.4856 49.8289 27.3415 50.0715 26.8259 50.5796L26.2685 51.1445V51.1673H27.5349V51.5237H25.6884Z" fill="#555555"/>
<rect x="5.81398" y="59.4878" width="47.8992" height="14.5589" rx="1.40117" fill="white"/>
<rect x="5.81398" y="59.4878" width="47.8992" height="14.5589" rx="1.40117" stroke="#E8E8E8" stroke-width="0.147491"/>
<path d="M13.8924 66.527V66.8227H13.3654V68.5858H13.0052V65.1924H13.3654V66.527H13.8924ZM11.2042 65.5222V67.4332C11.6781 67.4332 12.1729 67.3934 12.7132 67.2815L12.7549 67.5849C12.1748 67.7024 11.6364 67.7327 11.1284 67.7327H10.8478V65.5222H11.2042ZM15.1039 65.435C15.6423 65.4312 16.0252 65.7649 16.029 66.2426C16.0252 66.7204 15.6423 67.054 15.1039 67.054C14.5693 67.054 14.175 66.7204 14.1788 66.2426C14.175 65.7649 14.5693 65.4312 15.1039 65.435ZM15.1039 65.7459C14.774 65.7459 14.5314 65.9431 14.5352 66.2426C14.5314 66.5422 14.774 66.7393 15.1039 66.7393C15.4338 66.7393 15.6764 66.5422 15.6764 66.2426C15.6764 65.9431 15.4338 65.7459 15.1039 65.7459ZM16.8063 65.1924V68.5972H16.4461V65.1924H16.8063ZM14.0157 67.5659C14.6337 67.5659 15.4906 67.5583 16.2338 67.4521L16.2603 67.7138C15.4906 67.8616 14.6679 67.8654 14.0612 67.8654L14.0157 67.5659ZM20.8483 65.3327V66.4967H19.87V66.891H21.2426V67.1829H18.1449V66.891H19.5136V66.4967H18.5392V65.3327H20.8483ZM18.8918 65.617V66.2085H20.4919V65.617H18.8918ZM20.8634 67.5052V68.5896H20.4994V67.7896H18.4899V67.5052H20.8634ZM24.5318 67.892V68.1877H21.4228V67.892H22.2569V67.1374H21.6958V66.8455H22.2038V65.7877H21.6882V65.4919H24.2475V65.7877H23.728V66.8455H24.2361V67.1374H23.6787V67.892H24.5318ZM22.5602 66.8455H23.3754V65.7877H22.5602V66.8455ZM22.6171 67.892H23.3185V67.1374H22.6171V67.892ZM26.6629 68.3052C26.0941 68.3052 25.6884 67.9981 25.6733 67.5507H26.0979C26.1131 67.7934 26.3519 67.9451 26.6591 67.9451C26.9889 67.9451 27.2316 67.7631 27.2316 67.4976C27.2316 67.2284 27.0041 67.0313 26.6136 67.0313H26.3785V66.69H26.6136C26.9245 66.69 27.1444 66.5156 27.1444 66.254C27.1444 66.0038 26.9586 65.8331 26.6666 65.8331C26.3899 65.8331 26.1472 65.9848 26.1358 66.2351H25.7339C25.7453 65.7877 26.1586 65.4843 26.6704 65.4843C27.2088 65.4843 27.5501 65.8256 27.5463 66.2313C27.5501 66.5422 27.3567 66.7697 27.061 66.8417V66.8607C27.4363 66.9137 27.6525 67.164 27.6525 67.5128C27.6525 67.9716 27.2316 68.3052 26.6629 68.3052Z" fill="#555555"/>
<rect x="5.81398" y="76.231" width="47.8992" height="14.5589" rx="1.40117" fill="white"/>
<rect x="5.81398" y="76.231" width="47.8992" height="14.5589" rx="1.40117" stroke="#E8E8E8" stroke-width="0.147491"/>
<path d="M13.8924 83.2702V83.5659H13.3654V85.329H13.0052V81.9355H13.3654V83.2702H13.8924ZM11.2042 82.2654V84.1764C11.6781 84.1764 12.1729 84.1365 12.7132 84.0247L12.7549 84.328C12.1748 84.4456 11.6364 84.4759 11.1284 84.4759H10.8478V82.2654H11.2042ZM15.1039 82.1782C15.6423 82.1744 16.0252 82.5081 16.029 82.9858C16.0252 83.4635 15.6423 83.7972 15.1039 83.7972C14.5693 83.7972 14.175 83.4635 14.1788 82.9858C14.175 82.5081 14.5693 82.1744 15.1039 82.1782ZM15.1039 82.4891C14.774 82.4891 14.5314 82.6863 14.5352 82.9858C14.5314 83.2853 14.774 83.4825 15.1039 83.4825C15.4338 83.4825 15.6764 83.2853 15.6764 82.9858C15.6764 82.6863 15.4338 82.4891 15.1039 82.4891ZM16.8063 81.9355V85.3404H16.4461V81.9355H16.8063ZM14.0157 84.3091C14.6337 84.3091 15.4906 84.3015 16.2338 84.1953L16.2603 84.4569C15.4906 84.6048 14.6679 84.6086 14.0612 84.6086L14.0157 84.3091ZM20.8483 82.0758V83.2398H19.87V83.6342H21.2426V83.9261H18.1449V83.6342H19.5136V83.2398H18.5392V82.0758H20.8483ZM18.8918 82.3602V82.9517H20.4919V82.3602H18.8918ZM20.8634 84.2484V85.3328H20.4994V84.5328H18.4899V84.2484H20.8634ZM24.5318 84.6351V84.9309H21.4228V84.6351H22.2569V83.8806H21.6958V83.5887H22.2038V82.5308H21.6882V82.2351H24.2475V82.5308H23.728V83.5887H24.2361V83.8806H23.6787V84.6351H24.5318ZM22.5602 83.5887H23.3754V82.5308H22.5602V83.5887ZM22.6171 84.6351H23.3185V83.8806H22.6171V84.6351ZM25.6278 84.4759V84.1384L26.8411 82.2654H27.3567V84.1233H27.7321V84.4759H27.3567V85.0105H26.9624V84.4759H25.6278ZM26.0676 84.1233H26.9624V82.7621H26.9321L26.0676 84.1005V84.1233Z" fill="#555555"/>
<rect x="5.81398" y="92.9754" width="47.8992" height="14.5589" rx="1.40117" fill="white"/>
<rect x="5.81398" y="92.9754" width="47.8992" height="14.5589" rx="1.40117" stroke="#E8E8E8" stroke-width="0.147491"/>
<path d="M13.8924 100.015V100.31H13.3654V102.073H13.0052V98.6799H13.3654V100.015H13.8924ZM11.2042 99.0098V100.921C11.6781 100.921 12.1729 100.881 12.7132 100.769L12.7549 101.072C12.1748 101.19 11.6364 101.22 11.1284 101.22H10.8478V99.0098H11.2042ZM15.1039 98.9226C15.6423 98.9188 16.0252 99.2525 16.029 99.7302C16.0252 100.208 15.6423 100.542 15.1039 100.542C14.5693 100.542 14.175 100.208 14.1788 99.7302C14.175 99.2525 14.5693 98.9188 15.1039 98.9226ZM15.1039 99.2335C14.774 99.2335 14.5314 99.4307 14.5352 99.7302C14.5314 100.03 14.774 100.227 15.1039 100.227C15.4338 100.227 15.6764 100.03 15.6764 99.7302C15.6764 99.4307 15.4338 99.2335 15.1039 99.2335ZM16.8063 98.6799V102.085H16.4461V98.6799H16.8063ZM14.0157 101.053C14.6337 101.053 15.4906 101.046 16.2338 100.94L16.2603 101.201C15.4906 101.349 14.6679 101.353 14.0612 101.353L14.0157 101.053ZM20.8483 98.8202V99.9842H19.87V100.379H21.2426V100.67H18.1449V100.379H19.5136V99.9842H18.5392V98.8202H20.8483ZM18.8918 99.1046V99.6961H20.4919V99.1046H18.8918ZM20.8634 100.993V102.077H20.4994V101.277H18.4899V100.993H20.8634ZM24.5318 101.38V101.675H21.4228V101.38H22.2569V100.625H21.6958V100.333H22.2038V99.2752H21.6882V98.9795H24.2475V99.2752H23.728V100.333H24.2361V100.625H23.6787V101.38H24.5318ZM22.5602 100.333H23.3754V99.2752H22.5602V100.333ZM22.6171 101.38H23.3185V100.625H22.6171V101.38ZM26.6211 101.793C26.1017 101.793 25.7112 101.474 25.6922 101.038H26.0979C26.1207 101.273 26.3444 101.444 26.6211 101.444C26.9548 101.444 27.1937 101.201 27.1937 100.875C27.1937 100.542 26.9472 100.299 26.6022 100.295C26.3823 100.295 26.2155 100.367 26.1207 100.538H25.7263L25.9045 99.0098H27.4591V99.3662H26.2496L26.1586 100.136H26.1851C26.2989 100.026 26.4922 99.9501 26.7008 99.9501C27.2164 99.9501 27.5994 100.333 27.5994 100.864C27.5994 101.406 27.1937 101.793 26.6211 101.793Z" fill="#555555"/>
<rect x="56.2139" y="18.6482" width="2.4266" height="88.5709" rx="1.2133" fill="#F8F8F8"/>
<rect x="56.2139" y="18.6482" width="2.4266" height="31.0331" rx="1.2133" fill="#E8E8E8"/>
<path d="M8.56874 16.3163V17.4803H7.59052V17.8746H8.96306V18.1666H5.86536V17.8746H7.23411V17.4803H6.25968V16.3163H8.56874ZM6.61229 16.6007V17.1922H8.21233V16.6007H6.61229ZM8.58391 18.4889V19.5733H8.21992V18.7732H6.21039V18.4889H8.58391ZM12.2523 18.8756V19.1714H9.14324V18.8756H9.97738V18.1211H9.41623V17.8291H9.9243V16.7713H9.40865V16.4756H11.968V16.7713H11.4485V17.8291H11.9566V18.1211H11.3992V18.8756H12.2523ZM10.2807 17.8291H11.0959V16.7713H10.2807V17.8291ZM10.3376 18.8756H11.039V18.1211H10.3376V18.8756ZM14.9521 16.3656V16.6538H13.7918V17.4803C14.4326 17.4822 14.8194 17.4538 15.2592 17.3666L15.3009 17.6509C14.8307 17.7533 14.4175 17.7685 13.7046 17.7685H13.4354V16.3656H14.9521ZM15.9606 16.176V16.8699H16.4535V17.1656H15.9606V17.8822H15.6004V16.176H15.9606ZM15.9606 18.0415V18.9097H14.1255V19.2396H16.0782V19.5316H13.7729V18.633H15.6042V18.3296H13.7653V18.0415H15.9606ZM17.775 16.6841C17.775 17.1618 18.0821 17.5865 18.5977 17.7533L18.4006 18.0339C18.0271 17.8993 17.7522 17.6377 17.6043 17.2983C17.4565 17.687 17.1607 17.9884 16.7512 18.1363L16.5579 17.8481C17.1001 17.6623 17.4148 17.2111 17.4186 16.6993V16.3656H17.775V16.6841ZM19.4015 16.176V18.1818H19.0413V17.1618H18.3247V16.8661H19.0413V16.176H19.4015ZM18.2641 18.2765C18.9769 18.2765 19.4129 18.5116 19.4129 18.9249C19.4129 19.3344 18.9769 19.5695 18.2641 19.5657C17.5513 19.5695 17.1114 19.3344 17.1152 18.9249C17.1114 18.5116 17.5513 18.2765 18.2641 18.2765ZM18.2641 18.5571C17.7674 18.5571 17.4716 18.6898 17.4716 18.9249C17.4716 19.1524 17.7674 19.2813 18.2641 19.2813C18.7608 19.2813 19.0565 19.1524 19.0565 18.9249C19.0565 18.6898 18.7608 18.5571 18.2641 18.5571ZM22.4577 16.4756C22.4539 16.9267 23.0075 17.3514 23.6748 17.4386L23.5345 17.7344C22.979 17.6452 22.4899 17.3571 22.2719 16.9571C22.0482 17.359 21.561 17.6452 21.0093 17.7344L20.8652 17.4386C21.5326 17.3514 22.0785 16.9305 22.0823 16.4756V16.2898H22.4577V16.4756ZM23.8151 18.068V18.3638H22.4349V19.5733H22.0823V18.3638H20.7174V18.068H23.8151ZM26.0257 16.5059V19.251H25.6048V16.923H25.5897L24.9337 17.3514V16.9533L25.6162 16.5059H26.0257ZM26.585 18.7164V18.3789L27.7983 16.5059H28.314V18.3638H28.6894V18.7164H28.314V19.251H27.9197V18.7164H26.585ZM27.0249 18.3638H27.9197V17.0026H27.8893L27.0249 18.341V18.3638ZM31.8232 16.176V19.5733H31.4781V17.8102H31.0573V19.4102H30.7198V16.267H31.0573V17.5182H31.4781V16.176H31.8232ZM30.3824 16.6083C30.3786 17.5031 30.0828 18.3031 29.1122 18.8529L28.9037 18.6026C29.6582 18.1761 29.9767 17.5979 30.0335 16.904H29.0477V16.6083H30.3824Z" fill="#A7A7A7"/>
</svg>
