<svg width="391" height="390" viewBox="0 0 391 390" fill="none" xmlns="http://www.w3.org/2000/svg">
<path d="M195.078 0C302.592 0 390.078 87.4865 390.078 195C390.078 302.514 302.592 390 195.078 390C87.5646 390 0.078125 302.514 0.078125 195C0.0781266 87.4865 87.5646 1.55248e-06 195.078 0ZM195.078 31.6221C104.957 31.6221 31.7002 104.878 31.7002 195C31.7002 285.122 104.957 358.378 195.078 358.378C285.2 358.378 358.456 285.122 358.456 195C358.456 104.878 285.2 31.6221 195.078 31.6221ZM192.107 257.62C205.764 257.62 215.743 267.623 215.743 281.311C215.743 294.998 205.764 305 192.107 305C178.451 305 168.472 294.998 168.472 281.311C168.472 267.623 178.451 257.62 192.107 257.62ZM193.578 84C230.45 84 258.078 107.163 258.078 139.697C258.078 186.34 209.966 192.237 209.966 218.559V233.299H174.67V213.294H174.564C174.564 176.864 222.256 169.283 222.256 139.697C222.256 126.536 214.062 112.007 193.578 112.007C173.094 112.007 164.9 126.536 164.9 139.697V140.961H129.078V139.697C129.078 108.006 156.706 84 193.578 84Z" fill="#A7A7A7"/>
</svg>
