<svg width="30" height="30" viewBox="0 0 30 30" fill="none" xmlns="http://www.w3.org/2000/svg">
<g clip-path="url(#clip0_3288_1548)">
<path d="M14.5445 14.8987C13.9445 14.8987 13.4602 14.4144 13.4602 13.8144V9.22404C13.4602 5.33491 10.9301 2.16866 7.81441 2.16866C4.69877 2.16866 2.16866 5.33491 2.16866 9.22404V13.8144C2.16866 14.4144 1.68433 14.8987 1.08433 14.8987C0.484334 14.8987 0 14.4144 0 13.8144V9.22404C0 4.14214 3.506 0 7.81441 0C12.1228 0 15.6288 4.14214 15.6288 9.22404V13.8144C15.6288 14.4144 15.1445 14.8987 14.5445 14.8987Z" fill="#D9D9D9"/>
<path d="M25.3373 10.4824H9.08677C6.97479 10.4824 5.2627 12.1945 5.2627 14.3065V26.1763C5.2627 28.2883 6.97479 30.0004 9.08677 30.0004H25.3373C27.4492 30.0004 29.1613 28.2883 29.1613 26.1763V14.3065C29.1613 12.1945 27.4492 10.4824 25.3373 10.4824Z" fill="#D9D9D9"/>
<path d="M17.2123 26.0227C16.6123 26.0227 16.1279 25.5384 16.1279 24.9384V23.2757C16.1279 22.6757 16.6123 22.1914 17.2123 22.1914C17.8123 22.1914 18.2966 22.6757 18.2966 23.2757V24.9384C18.2966 25.5384 17.8123 26.0227 17.2123 26.0227Z" fill="white"/>
<path d="M17.2118 23.2328C19.5354 23.2328 21.419 21.3491 21.419 19.0256C21.419 16.702 19.5354 14.8184 17.2118 14.8184C14.8883 14.8184 13.0046 16.702 13.0046 19.0256C13.0046 21.3491 14.8883 23.2328 17.2118 23.2328Z" fill="white"/>
</g>
<defs>
<clipPath id="clip0_3288_1548">
<rect width="30" height="30" fill="white"/>
</clipPath>
</defs>
</svg>
