<svg width="30" height="40" viewBox="0 0 30 40" fill="none" xmlns="http://www.w3.org/2000/svg">
<rect x="0.158333" y="10.7083" width="29.6833" height="29.1333" rx="4.59167" fill="#E9E9E9" stroke="#E9E9E9" stroke-width="0.316667"/>
<path d="M24.5163 10.55C24.5163 5.82797 20.328 2 15.1615 2C9.99494 2 5.80664 5.82797 5.80664 10.55" stroke="#E9E9E9" stroke-width="2.53333"/>
<path d="M15 18.4667C17.9394 18.4667 20.323 20.8058 20.3232 23.6913C20.3232 26.3235 18.34 28.4999 15.7607 28.8622V31.6395C15.7607 32.0595 15.4199 32.4003 15 32.4003C14.5801 32.4002 14.2402 32.0594 14.2402 31.6395V28.8622C11.6608 28.5 9.67773 26.3236 9.67773 23.6913C9.67795 20.8059 12.0607 18.4668 15 18.4667Z" fill="white"/>
</svg>
