<svg width="14" height="20" viewBox="0 0 14 20" fill="none" xmlns="http://www.w3.org/2000/svg">
<path fill-rule="evenodd" clip-rule="evenodd" d="M7.75 16.2221V19.0396H6.25V16.2221C4.53323 16.0507 2.94541 15.2972 1.79173 14.1065C0.638056 12.9159 -7.26502e-05 11.372 6.20374e-09 9.77173V7.91816H1.5V9.77173C1.5 11.1236 2.07946 12.4201 3.11091 13.3761C4.14236 14.332 5.54131 14.869 7 14.869C8.45869 14.869 9.85764 14.332 10.8891 13.3761C11.9205 12.4201 12.5 11.1236 12.5 9.77173V7.91816H14V9.77173C14.0001 11.372 13.3619 12.9159 12.2083 14.1065C11.0546 15.2972 9.46677 16.0507 7.75 16.2221ZM3 4.21104C3 3.22784 3.42143 2.28492 4.17157 1.5897C4.92172 0.894478 5.93913 0.503906 7 0.503906C8.06087 0.503906 9.07828 0.894478 9.82843 1.5897C10.5786 2.28492 11 3.22784 11 4.21104V9.77173C11 10.7549 10.5786 11.6978 9.82843 12.3931C9.07828 13.0883 8.06087 13.4789 7 13.4789C5.93913 13.4789 4.92172 13.0883 4.17157 12.3931C3.42143 11.6978 3 10.7549 3 9.77173V4.21104Z" fill="white"/>
</svg>
